STARTFONT 2.1
COMMENT  
COMMENT  
COMMENT  
COMMENT  WARNING:  This bdf file was generated from a font server using
COMMENT  fstobdf.  The resulting font is subject to the same copyright,
COMMENT  license, and trademark restrictions as the original font.  The
COMMENT  authors and distributors of fstobdf disclaim all liability for
COMMENT  misuse of the program or its output.
COMMENT  
FONT -star division-starbats-medium-r-normal--12-120-75-75-p-0-stardivision-fontspecific
SIZE 12 75 75
FONTBOUNDINGBOX 12 16 0 -4
STARTPROPERTIES 60
FONT "-star division-starbats-medium-r-normal--12-120-75-75-p-0-stardivision-fontspecific"
FONT_TYPE "TrueType"
TECHNOLOGY "TrueType"
FOUNDRY ""
FAMILY_NAME "starbats"
WEIGHT_NAME "medium"
SLANT "r"
SETWIDTH_NAME "normal"
ADD_STYLE_NAME ""
PIXEL_SIZE 12
POINT_SIZE 120
RESOLUTION_X 75
RESOLUTION_Y 75
SPACING "p"
AVERAGE_WIDTH 70
CHARSET_REGISTRY "stardivision"
CHARSET_ENCODING "fontspecific"
AVG_LOWERCASE_WIDTH 10
RAW_AVG_LOWERCASE_WIDTH 831
SUBSCRIPT_X 0
SUBSCRIPT_Y 2
SUBSCRIPT_SIZE 2
RAW_SUBSCRIPT_X 0
RAW_SUBSCRIPT_Y 211
RAW_SUBSCRIPT_SIZE 180
SUPERSCRIPT_X 0
SUPERSCRIPT_Y 7
SUPERSCRIPT_SIZE 2
RAW_SUPERSCRIPT_X 0
RAW_SUPERSCRIPT_Y 539
RAW_SUPERSCRIPT_SIZE 180
STRIKEOUT_ASCENT 4
STRIKEOUT_DESCENT -2
RAW_STRIKEOUT_ASCENT 308
RAW_STRIKEOUT_DESCENT -258
RELATIVE_SETWIDTH 50
RELATIVE_WEIGHT 40
_GALLIUM_PANOSE "2 11 5 0 0 0 0 0 0 0"
UNDERLINE_POSITION 0
UNDERLINE_THICKNESS 0
RAW_UNDERLINE_POSITION 0
RAW_UNDERLINE_THICKNESS 0
ITALIC_ANGLE 0
NORM_SPACE 3
RAW_NORM_SPACE 280
CAP_HEIGHT 7
RAW_CAP_HEIGHT 557
X_HEIGHT 6
RAW_X_HEIGHT 520
RAW_PIXEL_SIZE 1000
RAW_POINT_SIZE 9636
FONT_ASCENT 11
FONT_DESCENT 3
RAW_ASCENT 898
RAW_DESCENT 212
RAW_AVERAGE_WIDTH 6513
COPYRIGHT ""
FACE_NAME "StarB TT"
NOTICE ""
DEFAULT_CHAR 0
ENDPROPERTIES
CHARS 224
STARTCHAR space
ENCODING 32
SWIDTH 240 0
DWIDTH 3 0
BBX 0 0 0 0
ATTRIBUTES 0117
BITMAP
ENDCHAR
STARTCHAR exclam
ENCODING 33
SWIDTH 880 0
DWIDTH 11 0
BBX 9 10 1 -1
ATTRIBUTES 034c
BITMAP
3e00
4100
7680
9480
8080
a280
a280
5d00
2600
1800
ENDCHAR
STARTCHAR quotedbl
ENCODING 34
SWIDTH 720 0
DWIDTH 9 0
BBX 7 7 1 1
ATTRIBUTES 02ec
BITMAP
38
7c
fe
fe
fe
7c
38
ENDCHAR
STARTCHAR numbersign
ENCODING 35
SWIDTH 960 0
DWIDTH 12 0
BBX 10 9 1 0
ATTRIBUTES 03b8
BITMAP
3c00
4300
8080
80c0
80c0
80c0
41c0
6380
1f00
ENDCHAR
STARTCHAR dollar
ENCODING 36
SWIDTH 720 0
DWIDTH 9 0
BBX 7 7 1 1
ATTRIBUTES 02ec
BITMAP
fe
fe
fe
fe
fe
fe
fe
ENDCHAR
STARTCHAR percent
ENCODING 37
SWIDTH 880 0
DWIDTH 11 0
BBX 9 9 1 0
ATTRIBUTES 037c
BITMAP
ff80
8080
8080
8080
8080
8080
8080
8080
ff80
ENDCHAR
STARTCHAR ampersand
ENCODING 38
SWIDTH 880 0
DWIDTH 11 0
BBX 9 9 1 0
ATTRIBUTES 037c
BITMAP
ff80
ff80
c180
c180
c180
c180
c180
ff80
ff80
ENDCHAR
STARTCHAR apostrophe
ENCODING 39
SWIDTH 880 0
DWIDTH 11 0
BBX 9 9 1 0
ATTRIBUTES 037c
BITMAP
ff00
8180
8180
8180
8180
8180
8180
ff80
7f80
ENDCHAR
STARTCHAR parenleft
ENCODING 40
SWIDTH 880 0
DWIDTH 11 0
BBX 9 9 1 0
ATTRIBUTES 037c
BITMAP
7f80
ff80
8180
8180
8180
8180
8180
8180
ff00
ENDCHAR
STARTCHAR parenright
ENCODING 41
SWIDTH 480 0
DWIDTH 6 0
BBX 4 5 1 2
ATTRIBUTES 01cb
BITMAP
20
60
f0
60
20
ENDCHAR
STARTCHAR asterisk
ENCODING 42
SWIDTH 720 0
DWIDTH 9 0
BBX 7 11 1 -1
ATTRIBUTES 02ec
BITMAP
10
10
38
7c
7c
fe
7c
7c
38
10
10
ENDCHAR
STARTCHAR plus
ENCODING 43
SWIDTH 960 0
DWIDTH 12 0
BBX 10 11 1 -1
ATTRIBUTES 03db
BITMAP
0400
0c00
1e00
3f00
7f80
ffc0
7f80
3f00
1e00
0c00
0400
ENDCHAR
STARTCHAR comma
ENCODING 44
SWIDTH 880 0
DWIDTH 11 0
BBX 9 9 1 0
ATTRIBUTES 037c
BITMAP
0800
1c00
1c00
6b00
f780
6b00
1c00
1c00
0800
ENDCHAR
STARTCHAR minus
ENCODING 45
SWIDTH 560 0
DWIDTH 7 0
BBX 5 5 1 2
ATTRIBUTES 0244
BITMAP
20
70
f8
70
20
ENDCHAR
STARTCHAR period
ENCODING 46
SWIDTH 960 0
DWIDTH 12 0
BBX 10 9 1 0
ATTRIBUTES 03b8
BITMAP
1f00
6380
41c0
80c0
80c0
80c0
8080
4300
3c00
ENDCHAR
STARTCHAR slash
ENCODING 47
SWIDTH 800 0
DWIDTH 10 0
BBX 8 9 1 0
ATTRIBUTES 031b
BITMAP
80
e0
58
44
3f
3c
70
60
80
ENDCHAR
STARTCHAR 0
ENCODING 48
SWIDTH 960 0
DWIDTH 12 0
BBX 10 9 1 0
ATTRIBUTES 03d3
BITMAP
0c00
0600
0300
0180
ffc0
0180
0300
0600
0c00
ENDCHAR
STARTCHAR 1
ENCODING 49
SWIDTH 1040 0
DWIDTH 13 0
BBX 11 9 1 0
ATTRIBUTES 042b
BITMAP
0e00
0700
0380
ffc0
ffe0
ffc0
0380
0700
0e00
ENDCHAR
STARTCHAR 2
ENCODING 50
SWIDTH 800 0
DWIDTH 10 0
BBX 8 8 1 2
ATTRIBUTES 0314
BITMAP
01
02
04
0c
08
d0
70
60
ENDCHAR
STARTCHAR 3
ENCODING 51
SWIDTH 880 0
DWIDTH 11 0
BBX 9 9 1 0
ATTRIBUTES 037c
BITMAP
ff80
8080
b280
bc80
9880
be80
a280
8080
ff80
ENDCHAR
STARTCHAR 4
ENCODING 52
SWIDTH 880 0
DWIDTH 11 0
BBX 10 9 0 0
ATTRIBUTES 037c
BITMAP
ff80
8180
8280
8280
a480
b880
9880
8080
ff80
ENDCHAR
STARTCHAR 5
ENCODING 53
SWIDTH 880 0
DWIDTH 11 0
BBX 9 9 1 0
ATTRIBUTES 037c
BITMAP
1c00
7f00
fd00
0080
0080
0080
fd00
7f00
1c00
ENDCHAR
STARTCHAR 6
ENCODING 54
SWIDTH 800 0
DWIDTH 10 0
BBX 9 5 0 1
ATTRIBUTES 0303
BITMAP
0800
bf80
fe00
fe00
9c00
ENDCHAR
STARTCHAR 7
ENCODING 55
SWIDTH 640 0
DWIDTH 8 0
BBX 7 6 0 0
ATTRIBUTES 029f
BITMAP
18
78
76
66
7e
80
ENDCHAR
STARTCHAR 8
ENCODING 56
SWIDTH 720 0
DWIDTH 9 0
BBX 8 6 0 0
ATTRIBUTES 02e4
BITMAP
f0
d8
dc
76
3d
07
ENDCHAR
STARTCHAR 9
ENCODING 57
SWIDTH 560 0
DWIDTH 7 0
BBX 7 7 0 0
ATTRIBUTES 0247
BITMAP
06
0c
08
10
b0
e0
40
ENDCHAR
STARTCHAR colon
ENCODING 58
SWIDTH 640 0
DWIDTH 8 0
BBX 7 7 0 0
ATTRIBUTES 028f
BITMAP
02
06
4c
d8
f0
e0
c0
ENDCHAR
STARTCHAR semicolon
ENCODING 59
SWIDTH 720 0
DWIDTH 9 0
BBX 8 8 0 1
ATTRIBUTES 02d8
BITMAP
3c
7e
ff
ff
ff
ff
7e
3c
ENDCHAR
STARTCHAR less
ENCODING 60
SWIDTH 640 0
DWIDTH 8 0
BBX 8 7 0 0
ATTRIBUTES 027c
BITMAP
7c
82
83
81
81
42
7c
ENDCHAR
STARTCHAR equal
ENCODING 61
SWIDTH 560 0
DWIDTH 7 0
BBX 7 7 0 0
ATTRIBUTES 0230
BITMAP
fe
fe
fe
fe
fe
fe
fe
ENDCHAR
STARTCHAR greater
ENCODING 62
SWIDTH 560 0
DWIDTH 7 0
BBX 6 7 0 0
ATTRIBUTES 0227
BITMAP
f8
84
84
84
84
84
fc
ENDCHAR
STARTCHAR question
ENCODING 63
SWIDTH 560 0
DWIDTH 7 0
BBX 7 7 0 0
ATTRIBUTES 0230
BITMAP
7e
fe
82
82
82
82
fc
ENDCHAR
STARTCHAR at
ENCODING 64
SWIDTH 560 0
DWIDTH 7 0
BBX 7 7 0 0
ATTRIBUTES 0227
BITMAP
fe
82
82
82
82
82
fc
ENDCHAR
STARTCHAR A
ENCODING 65
SWIDTH 720 0
DWIDTH 9 0
BBX 7 7 1 2
ATTRIBUTES 02dc
BITMAP
10
38
7c
fe
7c
38
10
ENDCHAR
STARTCHAR B
ENCODING 66
SWIDTH 560 0
DWIDTH 7 0
BBX 7 7 0 0
ATTRIBUTES 0240
BITMAP
10
38
54
ee
54
38
10
ENDCHAR
STARTCHAR C
ENCODING 67
SWIDTH 400 0
DWIDTH 5 0
BBX 5 7 0 0
ATTRIBUTES 01a7
BITMAP
20
70
70
f8
70
60
20
ENDCHAR
STARTCHAR D
ENCODING 68
SWIDTH 560 0
DWIDTH 7 0
BBX 7 7 0 0
ATTRIBUTES 0237
BITMAP
10
10
10
fe
52
10
10
ENDCHAR
STARTCHAR E
ENCODING 69
SWIDTH 560 0
DWIDTH 7 0
BBX 7 7 0 0
ATTRIBUTES 0240
BITMAP
10
10
10
fe
d2
10
10
ENDCHAR
STARTCHAR F
ENCODING 70
SWIDTH 560 0
DWIDTH 7 0
BBX 7 7 0 0
ATTRIBUTES 0237
BITMAP
18
38
54
fe
d6
38
30
ENDCHAR
STARTCHAR G
ENCODING 71
SWIDTH 560 0
DWIDTH 7 0
BBX 7 7 0 0
ATTRIBUTES 0240
BITMAP
10
38
54
fe
54
38
10
ENDCHAR
STARTCHAR H
ENCODING 72
SWIDTH 560 0
DWIDTH 7 0
BBX 6 7 0 0
ATTRIBUTES 021f
BITMAP
10
58
70
fc
58
58
10
ENDCHAR
STARTCHAR I
ENCODING 73
SWIDTH 560 0
DWIDTH 7 0
BBX 7 7 0 0
ATTRIBUTES 0240
BITMAP
10
54
38
7c
38
54
10
ENDCHAR
STARTCHAR J
ENCODING 74
SWIDTH 560 0
DWIDTH 7 0
BBX 7 7 0 0
ATTRIBUTES 0240
BITMAP
10
5c
38
7e
3c
7c
18
ENDCHAR
STARTCHAR K
ENCODING 75
SWIDTH 480 0
DWIDTH 6 0
BBX 6 7 0 0
ATTRIBUTES 01fb
BITMAP
10
20
68
30
78
14
10
ENDCHAR
STARTCHAR L
ENCODING 76
SWIDTH 560 0
DWIDTH 7 0
BBX 7 7 0 0
ATTRIBUTES 0237
BITMAP
28
28
f6
38
7c
28
28
ENDCHAR
STARTCHAR M
ENCODING 77
SWIDTH 560 0
DWIDTH 7 0
BBX 7 7 0 0
ATTRIBUTES 0240
BITMAP
28
28
7c
38
7c
28
28
ENDCHAR
STARTCHAR N
ENCODING 78
SWIDTH 640 0
DWIDTH 8 0
BBX 7 7 0 0
ATTRIBUTES 025c
BITMAP
38
38
7c
fe
7c
38
34
ENDCHAR
STARTCHAR O
ENCODING 79
SWIDTH 480 0
DWIDTH 6 0
BBX 6 7 0 -1
ATTRIBUTES 01df
BITMAP
28
38
30
30
68
c8
80
ENDCHAR
STARTCHAR P
ENCODING 80
SWIDTH 480 0
DWIDTH 6 0
BBX 6 7 0 0
ATTRIBUTES 0204
BITMAP
04
4c
78
30
70
d8
98
ENDCHAR
STARTCHAR Q
ENCODING 81
SWIDTH 560 0
DWIDTH 7 0
BBX 6 6 0 0
ATTRIBUTES 0247
BITMAP
78
8c
fc
8c
6c
18
ENDCHAR
STARTCHAR R
ENCODING 82
SWIDTH 560 0
DWIDTH 7 0
BBX 7 7 0 0
ATTRIBUTES 0247
BITMAP
38
38
fe
fe
fe
38
38
ENDCHAR
STARTCHAR S
ENCODING 83
SWIDTH 560 0
DWIDTH 7 0
BBX 7 7 0 0
ATTRIBUTES 0247
BITMAP
10
10
10
fe
18
30
30
ENDCHAR
STARTCHAR T
ENCODING 84
SWIDTH 560 0
DWIDTH 7 0
BBX 7 7 0 0
ATTRIBUTES 0237
BITMAP
38
38
fe
e6
e6
38
38
ENDCHAR
STARTCHAR U
ENCODING 85
SWIDTH 640 0
DWIDTH 8 0
BBX 8 7 0 0
ATTRIBUTES 0273
BITMAP
10
10
18
66
24
3c
22
ENDCHAR
STARTCHAR V
ENCODING 86
SWIDTH 640 0
DWIDTH 8 0
BBX 8 7 0 0
ATTRIBUTES 026c
BITMAP
08
18
3c
5a
3c
3a
66
ENDCHAR
STARTCHAR W
ENCODING 87
SWIDTH 560 0
DWIDTH 7 0
BBX 7 7 0 0
ATTRIBUTES 024f
BITMAP
10
28
7e
7c
7c
7c
6c
ENDCHAR
STARTCHAR X
ENCODING 88
SWIDTH 560 0
DWIDTH 7 0
BBX 7 7 0 0
ATTRIBUTES 024f
BITMAP
10
28
7e
54
54
7c
44
ENDCHAR
STARTCHAR Y
ENCODING 89
SWIDTH 640 0
DWIDTH 8 0
BBX 7 7 0 0
ATTRIBUTES 025f
BITMAP
10
18
28
fc
34
2c
6c
ENDCHAR
STARTCHAR Z
ENCODING 90
SWIDTH 640 0
DWIDTH 8 0
BBX 8 7 0 0
ATTRIBUTES 02a8
BITMAP
18
28
e8
46
44
54
6e
ENDCHAR
STARTCHAR bracketleft
ENCODING 91
SWIDTH 240 0
DWIDTH 3 0
BBX 2 12 0 -3
ATTRIBUTES 0117
BITMAP
c0
80
80
80
80
80
80
80
80
80
80
00
ENDCHAR
STARTCHAR backslash
ENCODING 92
SWIDTH 880 0
DWIDTH 11 0
BBX 9 9 1 0
ATTRIBUTES 037c
BITMAP
1c00
7300
6b00
dd80
dd80
dd80
6b00
7700
1c00
ENDCHAR
STARTCHAR bracketright
ENCODING 93
SWIDTH 880 0
DWIDTH 11 0
BBX 9 9 1 0
ATTRIBUTES 037c
BITMAP
1c00
7f00
7700
f780
f780
f780
7700
7f00
1c00
ENDCHAR
STARTCHAR asciicircum
ENCODING 94
SWIDTH 880 0
DWIDTH 11 0
BBX 9 9 1 0
ATTRIBUTES 037c
BITMAP
1c00
6300
7b00
fb80
f780
ef80
6300
7f00
1c00
ENDCHAR
STARTCHAR underscore
ENCODING 95
SWIDTH 880 0
DWIDTH 11 0
BBX 9 9 1 0
ATTRIBUTES 037c
BITMAP
1c00
6300
7b00
fb80
e780
fd80
7d00
6300
1c00
ENDCHAR
STARTCHAR grave
ENCODING 96
SWIDTH 880 0
DWIDTH 11 0
BBX 9 9 1 0
ATTRIBUTES 037c
BITMAP
1c00
7f00
7300
eb80
db80
c180
7b00
7f00
1c00
ENDCHAR
STARTCHAR a
ENCODING 97
SWIDTH 880 0
DWIDTH 11 0
BBX 9 9 1 0
ATTRIBUTES 037c
BITMAP
1c00
7f00
6300
ef80
e780
fb80
fb80
6700
3e00
ENDCHAR
STARTCHAR b
ENCODING 98
SWIDTH 880 0
DWIDTH 11 0
BBX 9 9 1 0
ATTRIBUTES 037c
BITMAP
1c00
6300
6f00
df80
d380
dd80
7d00
6300
1c00
ENDCHAR
STARTCHAR c
ENCODING 99
SWIDTH 880 0
DWIDTH 11 0
BBX 9 9 1 0
ATTRIBUTES 037c
BITMAP
1c00
7f00
6100
fb80
fb80
f780
6700
6f00
1c00
ENDCHAR
STARTCHAR d
ENCODING 100
SWIDTH 880 0
DWIDTH 11 0
BBX 9 9 1 0
ATTRIBUTES 037c
BITMAP
1c00
7300
6b00
ef80
f380
e980
6d00
7300
1c00
ENDCHAR
STARTCHAR e
ENCODING 101
SWIDTH 880 0
DWIDTH 11 0
BBX 9 9 1 0
ATTRIBUTES 037c
BITMAP
1c00
7300
6d00
ed80
ed80
f580
7f00
6300
1c00
ENDCHAR
STARTCHAR f
ENCODING 102
SWIDTH 880 0
DWIDTH 11 0
BBX 9 9 1 0
ATTRIBUTES 037c
BITMAP
1e00
7900
5680
d680
d680
d680
5680
7900
1e00
ENDCHAR
STARTCHAR g
ENCODING 103
SWIDTH 880 0
DWIDTH 11 0
BBX 9 9 1 0
ATTRIBUTES 037c
BITMAP
1800
2600
4900
5480
9480
5480
4900
6300
1c00
ENDCHAR
STARTCHAR h
ENCODING 104
SWIDTH 880 0
DWIDTH 11 0
BBX 9 9 1 0
ATTRIBUTES 037c
BITMAP
3c00
4300
4880
8880
8880
8880
4880
6300
1c00
ENDCHAR
STARTCHAR i
ENCODING 105
SWIDTH 880 0
DWIDTH 11 0
BBX 9 9 1 0
ATTRIBUTES 037c
BITMAP
1800
6600
5d00
8480
8480
8880
9c80
6300
3e00
ENDCHAR
STARTCHAR j
ENCODING 106
SWIDTH 880 0
DWIDTH 11 0
BBX 9 9 1 0
ATTRIBUTES 037c
BITMAP
1800
2600
4500
4480
8480
4480
4500
6300
1c00
ENDCHAR
STARTCHAR k
ENCODING 107
SWIDTH 880 0
DWIDTH 11 0
BBX 9 9 1 0
ATTRIBUTES 037c
BITMAP
1800
2600
4900
5480
a480
7c80
4500
6300
1c00
ENDCHAR
STARTCHAR l
ENCODING 108
SWIDTH 880 0
DWIDTH 11 0
BBX 9 9 1 0
ATTRIBUTES 037c
BITMAP
1800
2600
5100
5080
8880
4480
4500
6300
1c00
ENDCHAR
STARTCHAR m
ENCODING 109
SWIDTH 880 0
DWIDTH 11 0
BBX 9 9 1 0
ATTRIBUTES 037c
BITMAP
1800
2600
5100
5080
9c80
5480
4d00
6300
1c00
ENDCHAR
STARTCHAR n
ENCODING 110
SWIDTH 880 0
DWIDTH 11 0
BBX 9 9 1 0
ATTRIBUTES 037c
BITMAP
1800
6600
5d00
8480
8880
8880
9080
6300
3e00
ENDCHAR
STARTCHAR o
ENCODING 111
SWIDTH 880 0
DWIDTH 11 0
BBX 9 9 1 0
ATTRIBUTES 037c
BITMAP
1800
2600
5d00
5280
8c80
5280
5d00
6300
1c00
ENDCHAR
STARTCHAR p
ENCODING 112
SWIDTH 880 0
DWIDTH 11 0
BBX 9 9 1 0
ATTRIBUTES 037c
BITMAP
1800
2600
5d00
5480
9c80
4480
4500
6300
1c00
ENDCHAR
STARTCHAR q
ENCODING 113
SWIDTH 880 0
DWIDTH 11 0
BBX 9 9 1 0
ATTRIBUTES 037c
BITMAP
1800
2600
6500
9a80
9a80
5a80
5500
6300
1c00
ENDCHAR
STARTCHAR r
ENCODING 114
SWIDTH 1040 0
DWIDTH 13 0
BBX 11 10 1 0
ATTRIBUTES 0410
BITMAP
ffc0
8060
bf60
8060
8060
8060
8060
8060
ffe0
7fe0
ENDCHAR
STARTCHAR s
ENCODING 115
SWIDTH 1040 0
DWIDTH 13 0
BBX 11 12 1 0
ATTRIBUTES 042f
BITMAP
0000
8200
83e0
8360
8360
ff60
af60
ff60
af60
af60
ff60
ffe0
ENDCHAR
STARTCHAR t
ENCODING 116
SWIDTH 1040 0
DWIDTH 13 0
BBX 12 10 0 0
ATTRIBUTES 041a
BITMAP
7fe0
fff0
ef70
fff0
1980
1080
39c0
3fc0
3fc0
3fc0
ENDCHAR
STARTCHAR u
ENCODING 117
SWIDTH 560 0
DWIDTH 7 0
BBX 5 6 1 0
ATTRIBUTES 022c
BITMAP
88
88
88
88
88
78
ENDCHAR
STARTCHAR v
ENCODING 118
SWIDTH 480 0
DWIDTH 6 0
BBX 6 6 0 0
ATTRIBUTES 01f4
BITMAP
84
48
48
78
30
30
ENDCHAR
STARTCHAR w
ENCODING 119
SWIDTH 720 0
DWIDTH 9 0
BBX 9 6 0 0
ATTRIBUTES 02d4
BITMAP
8880
5500
5500
5500
3600
2200
ENDCHAR
STARTCHAR x
ENCODING 120
SWIDTH 480 0
DWIDTH 6 0
BBX 6 6 0 0
ATTRIBUTES 01f4
BITMAP
48
78
30
30
48
cc
ENDCHAR
STARTCHAR y
ENCODING 121
SWIDTH 480 0
DWIDTH 6 0
BBX 6 9 0 -3
ATTRIBUTES 01f4
BITMAP
c4
48
48
38
30
30
20
a0
c0
ENDCHAR
STARTCHAR z
ENCODING 122
SWIDTH 480 0
DWIDTH 6 0
BBX 6 6 0 0
ATTRIBUTES 01f4
BITMAP
0c
18
30
60
40
fc
ENDCHAR
STARTCHAR braceleft
ENCODING 123
SWIDTH 320 0
DWIDTH 4 0
BBX 3 12 0 -3
ATTRIBUTES 014f
BITMAP
60
40
40
40
40
80
40
40
40
40
40
20
ENDCHAR
STARTCHAR bar
ENCODING 124
SWIDTH 240 0
DWIDTH 3 0
BBX 1 12 1 -3
ATTRIBUTES 0103
BITMAP
80
80
80
80
80
80
80
80
80
80
80
80
ENDCHAR
STARTCHAR braceright
ENCODING 125
SWIDTH 320 0
DWIDTH 4 0
BBX 3 12 0 -3
ATTRIBUTES 014f
BITMAP
c0
40
40
40
40
20
40
40
40
40
40
80
ENDCHAR
STARTCHAR asciitilde
ENCODING 126
SWIDTH 560 0
DWIDTH 7 0
BBX 6 2 0 3
ATTRIBUTES 0247
BITMAP
fc
88
ENDCHAR
STARTCHAR C000177
ENCODING 127
SWIDTH 480 0
DWIDTH 6 0
BBX 6 6 0 0
ATTRIBUTES 01f7
BITMAP
fc
84
84
84
84
fc
ENDCHAR
STARTCHAR C000200
ENCODING 128
SWIDTH 720 0
DWIDTH 9 0
BBX 7 8 1 0
ATTRIBUTES 02ee
BITMAP
fe
82
82
82
82
82
82
fe
ENDCHAR
STARTCHAR C000201
ENCODING 129
SWIDTH 720 0
DWIDTH 9 0
BBX 7 8 1 0
ATTRIBUTES 02ee
BITMAP
fe
82
82
82
82
82
82
fe
ENDCHAR
STARTCHAR C000202
ENCODING 130
SWIDTH 720 0
DWIDTH 9 0
BBX 7 8 1 0
ATTRIBUTES 02ee
BITMAP
fe
82
82
82
82
82
82
fe
ENDCHAR
STARTCHAR C000203
ENCODING 131
SWIDTH 720 0
DWIDTH 9 0
BBX 7 8 1 0
ATTRIBUTES 02ee
BITMAP
fe
82
82
82
82
82
82
fe
ENDCHAR
STARTCHAR C000204
ENCODING 132
SWIDTH 720 0
DWIDTH 9 0
BBX 7 8 1 0
ATTRIBUTES 02ee
BITMAP
fe
82
82
82
82
82
82
fe
ENDCHAR
STARTCHAR C000205
ENCODING 133
SWIDTH 720 0
DWIDTH 9 0
BBX 7 8 1 0
ATTRIBUTES 02ee
BITMAP
fe
82
82
82
82
82
82
fe
ENDCHAR
STARTCHAR C000206
ENCODING 134
SWIDTH 720 0
DWIDTH 9 0
BBX 7 8 1 0
ATTRIBUTES 02ee
BITMAP
fe
82
82
82
82
82
82
fe
ENDCHAR
STARTCHAR C000207
ENCODING 135
SWIDTH 720 0
DWIDTH 9 0
BBX 7 8 1 0
ATTRIBUTES 02ee
BITMAP
fe
82
82
82
82
82
82
fe
ENDCHAR
STARTCHAR C000210
ENCODING 136
SWIDTH 720 0
DWIDTH 9 0
BBX 7 8 1 0
ATTRIBUTES 02ee
BITMAP
fe
82
82
82
82
82
82
fe
ENDCHAR
STARTCHAR C000211
ENCODING 137
SWIDTH 720 0
DWIDTH 9 0
BBX 7 8 1 0
ATTRIBUTES 02ee
BITMAP
fe
82
82
82
82
82
82
fe
ENDCHAR
STARTCHAR C000212
ENCODING 138
SWIDTH 720 0
DWIDTH 9 0
BBX 7 8 1 0
ATTRIBUTES 02ee
BITMAP
fe
82
82
82
82
82
82
fe
ENDCHAR
STARTCHAR C000213
ENCODING 139
SWIDTH 720 0
DWIDTH 9 0
BBX 7 8 1 0
ATTRIBUTES 02ee
BITMAP
fe
82
82
82
82
82
82
fe
ENDCHAR
STARTCHAR C000214
ENCODING 140
SWIDTH 720 0
DWIDTH 9 0
BBX 7 8 1 0
ATTRIBUTES 02ee
BITMAP
fe
82
82
82
82
82
82
fe
ENDCHAR
STARTCHAR C000215
ENCODING 141
SWIDTH 720 0
DWIDTH 9 0
BBX 7 8 1 0
ATTRIBUTES 02ee
BITMAP
fe
82
82
82
82
82
82
fe
ENDCHAR
STARTCHAR C000216
ENCODING 142
SWIDTH 720 0
DWIDTH 9 0
BBX 7 8 1 0
ATTRIBUTES 02ee
BITMAP
fe
82
82
82
82
82
82
fe
ENDCHAR
STARTCHAR C000217
ENCODING 143
SWIDTH 720 0
DWIDTH 9 0
BBX 7 8 1 0
ATTRIBUTES 02ee
BITMAP
fe
82
82
82
82
82
82
fe
ENDCHAR
STARTCHAR C000220
ENCODING 144
SWIDTH 720 0
DWIDTH 9 0
BBX 7 8 1 0
ATTRIBUTES 02ee
BITMAP
fe
82
82
82
82
82
82
fe
ENDCHAR
STARTCHAR C000221
ENCODING 145
SWIDTH 720 0
DWIDTH 9 0
BBX 7 8 1 0
ATTRIBUTES 02ee
BITMAP
fe
82
82
82
82
82
82
fe
ENDCHAR
STARTCHAR C000222
ENCODING 146
SWIDTH 720 0
DWIDTH 9 0
BBX 7 8 1 0
ATTRIBUTES 02ee
BITMAP
fe
82
82
82
82
82
82
fe
ENDCHAR
STARTCHAR C000223
ENCODING 147
SWIDTH 720 0
DWIDTH 9 0
BBX 7 8 1 0
ATTRIBUTES 02ee
BITMAP
fe
82
82
82
82
82
82
fe
ENDCHAR
STARTCHAR C000224
ENCODING 148
SWIDTH 720 0
DWIDTH 9 0
BBX 7 8 1 0
ATTRIBUTES 02ee
BITMAP
fe
82
82
82
82
82
82
fe
ENDCHAR
STARTCHAR C000225
ENCODING 149
SWIDTH 720 0
DWIDTH 9 0
BBX 7 8 1 0
ATTRIBUTES 02ee
BITMAP
fe
82
82
82
82
82
82
fe
ENDCHAR
STARTCHAR C000226
ENCODING 150
SWIDTH 720 0
DWIDTH 9 0
BBX 7 8 1 0
ATTRIBUTES 02ee
BITMAP
fe
82
82
82
82
82
82
fe
ENDCHAR
STARTCHAR C000227
ENCODING 151
SWIDTH 720 0
DWIDTH 9 0
BBX 7 8 1 0
ATTRIBUTES 02ee
BITMAP
fe
82
82
82
82
82
82
fe
ENDCHAR
STARTCHAR C000230
ENCODING 152
SWIDTH 720 0
DWIDTH 9 0
BBX 7 8 1 0
ATTRIBUTES 02ee
BITMAP
fe
82
82
82
82
82
82
fe
ENDCHAR
STARTCHAR C000231
ENCODING 153
SWIDTH 720 0
DWIDTH 9 0
BBX 7 8 1 0
ATTRIBUTES 02ee
BITMAP
fe
82
82
82
82
82
82
fe
ENDCHAR
STARTCHAR C000232
ENCODING 154
SWIDTH 720 0
DWIDTH 9 0
BBX 7 8 1 0
ATTRIBUTES 02ee
BITMAP
fe
82
82
82
82
82
82
fe
ENDCHAR
STARTCHAR C000233
ENCODING 155
SWIDTH 720 0
DWIDTH 9 0
BBX 7 8 1 0
ATTRIBUTES 02ee
BITMAP
fe
82
82
82
82
82
82
fe
ENDCHAR
STARTCHAR C000234
ENCODING 156
SWIDTH 720 0
DWIDTH 9 0
BBX 7 8 1 0
ATTRIBUTES 02ee
BITMAP
fe
82
82
82
82
82
82
fe
ENDCHAR
STARTCHAR C000235
ENCODING 157
SWIDTH 720 0
DWIDTH 9 0
BBX 7 8 1 0
ATTRIBUTES 02ee
BITMAP
fe
82
82
82
82
82
82
fe
ENDCHAR
STARTCHAR C000236
ENCODING 158
SWIDTH 720 0
DWIDTH 9 0
BBX 7 8 1 0
ATTRIBUTES 02ee
BITMAP
fe
82
82
82
82
82
82
fe
ENDCHAR
STARTCHAR C000237
ENCODING 159
SWIDTH 720 0
DWIDTH 9 0
BBX 7 8 1 0
ATTRIBUTES 02ee
BITMAP
fe
82
82
82
82
82
82
fe
ENDCHAR
STARTCHAR nobreakspace
ENCODING 160
SWIDTH 240 0
DWIDTH 3 0
BBX 0 0 0 0
ATTRIBUTES 0117
BITMAP
ENDCHAR
STARTCHAR exclamdown
ENCODING 161
SWIDTH 320 0
DWIDTH 4 0
BBX 1 8 2 -2
ATTRIBUTES 014c
BITMAP
80
00
80
80
80
80
80
80
ENDCHAR
STARTCHAR cent
ENCODING 162
SWIDTH 560 0
DWIDTH 7 0
BBX 6 12 0 -3
ATTRIBUTES 022c
BITMAP
08
08
10
78
94
90
a0
ec
78
40
40
00
ENDCHAR
STARTCHAR sterling
ENCODING 163
SWIDTH 560 0
DWIDTH 7 0
BBX 6 9 0 0
ATTRIBUTES 022c
BITMAP
38
48
40
40
f0
40
40
40
fc
ENDCHAR
STARTCHAR currency
ENCODING 164
SWIDTH 560 0
DWIDTH 7 0
BBX 6 6 0 1
ATTRIBUTES 022c
BITMAP
fc
48
84
48
fc
44
ENDCHAR
STARTCHAR yen
ENCODING 165
SWIDTH 560 0
DWIDTH 7 0
BBX 7 9 0 0
ATTRIBUTES 022c
BITMAP
86
44
6c
28
fe
10
fe
10
10
ENDCHAR
STARTCHAR brokenbar
ENCODING 166
SWIDTH 240 0
DWIDTH 3 0
BBX 1 12 1 -3
ATTRIBUTES 0103
BITMAP
80
80
80
80
80
00
00
80
80
80
80
80
ENDCHAR
STARTCHAR section
ENCODING 167
SWIDTH 560 0
DWIDTH 7 0
BBX 6 12 0 -3
ATTRIBUTES 022c
BITMAP
78
48
40
60
98
8c
44
38
18
4c
68
10
ENDCHAR
STARTCHAR diaeresis
ENCODING 168
SWIDTH 320 0
DWIDTH 4 0
BBX 3 1 1 8
ATTRIBUTES 014c
BITMAP
a0
ENDCHAR
STARTCHAR copyright
ENCODING 169
SWIDTH 720 0
DWIDTH 9 0
BBX 9 9 0 0
ATTRIBUTES 02df
BITMAP
1c00
2300
5c80
6280
a080
6280
5c80
2300
1c00
ENDCHAR
STARTCHAR ordfeminine
ENCODING 170
SWIDTH 400 0
DWIDTH 5 0
BBX 4 5 0 4
ATTRIBUTES 0174
BITMAP
60
90
f0
90
70
ENDCHAR
STARTCHAR guillemotleft
ENCODING 171
SWIDTH 560 0
DWIDTH 7 0
BBX 5 6 1 0
ATTRIBUTES 022c
BITMAP
48
50
b0
d0
50
28
ENDCHAR
STARTCHAR notsign
ENCODING 172
SWIDTH 560 0
DWIDTH 7 0
BBX 6 3 0 3
ATTRIBUTES 0247
BITMAP
fc
04
04
ENDCHAR
STARTCHAR hyphen
ENCODING 173
SWIDTH 320 0
DWIDTH 4 0
BBX 3 1 0 3
ATTRIBUTES 014c
BITMAP
e0
ENDCHAR
STARTCHAR registered
ENCODING 174
SWIDTH 720 0
DWIDTH 9 0
BBX 9 10 0 0
ATTRIBUTES 02df
BITMAP
1c00
2200
4100
5c80
9480
9480
5c80
5480
2300
1c00
ENDCHAR
STARTCHAR macron
ENCODING 175
SWIDTH 560 0
DWIDTH 7 0
BBX 7 0 0 10
ATTRIBUTES 0227
BITMAP
ENDCHAR
STARTCHAR degree
ENCODING 176
SWIDTH 400 0
DWIDTH 5 0
BBX 4 4 0 5
ATTRIBUTES 018f
BITMAP
40
60
60
40
ENDCHAR
STARTCHAR plusminus
ENCODING 177
SWIDTH 560 0
DWIDTH 7 0
BBX 6 7 0 0
ATTRIBUTES 0223
BITMAP
30
30
fc
30
30
00
fc
ENDCHAR
STARTCHAR twosuperior
ENCODING 178
SWIDTH 320 0
DWIDTH 4 0
BBX 4 5 0 4
ATTRIBUTES 014c
BITMAP
70
10
20
40
f0
ENDCHAR
STARTCHAR threesuperior
ENCODING 179
SWIDTH 320 0
DWIDTH 4 0
BBX 4 5 0 4
ATTRIBUTES 014c
BITMAP
60
10
30
90
60
ENDCHAR
STARTCHAR acute
ENCODING 180
SWIDTH 320 0
DWIDTH 4 0
BBX 2 2 1 7
ATTRIBUTES 014c
BITMAP
40
80
ENDCHAR
STARTCHAR mu
ENCODING 181
SWIDTH 560 0
DWIDTH 7 0
BBX 5 8 1 -2
ATTRIBUTES 0240
BITMAP
88
88
88
88
88
f8
80
80
ENDCHAR
STARTCHAR paragraph
ENCODING 182
SWIDTH 560 0
DWIDTH 7 0
BBX 7 11 0 -2
ATTRIBUTES 0218
BITMAP
3e
f4
f4
f4
74
14
14
14
14
14
14
ENDCHAR
STARTCHAR periodcentered
ENCODING 183
SWIDTH 240 0
DWIDTH 3 0
BBX 1 1 1 4
ATTRIBUTES 0117
BITMAP
80
ENDCHAR
STARTCHAR cedilla
ENCODING 184
SWIDTH 320 0
DWIDTH 4 0
BBX 3 3 0 -3
ATTRIBUTES 014c
BITMAP
40
60
80
ENDCHAR
STARTCHAR onesuperior
ENCODING 185
SWIDTH 480 0
DWIDTH 6 0
BBX 6 6 0 0
ATTRIBUTES 01f7
BITMAP
fc
84
84
84
84
fc
ENDCHAR
STARTCHAR masculine
ENCODING 186
SWIDTH 400 0
DWIDTH 5 0
BBX 4 5 0 4
ATTRIBUTES 016b
BITMAP
60
90
90
90
60
ENDCHAR
STARTCHAR guillemotright
ENCODING 187
SWIDTH 560 0
DWIDTH 7 0
BBX 5 6 1 0
ATTRIBUTES 022c
BITMAP
90
50
68
58
50
a0
ENDCHAR
STARTCHAR onequarter
ENCODING 188
SWIDTH 800 0
DWIDTH 10 0
BBX 10 9 0 0
ATTRIBUTES 0343
BITMAP
4080
c100
4200
4400
4400
0880
1180
23c0
2080
ENDCHAR
STARTCHAR onehalf
ENCODING 189
SWIDTH 800 0
DWIDTH 10 0
BBX 10 9 0 0
ATTRIBUTES 0343
BITMAP
4100
c100
4200
4400
0980
1240
1080
2100
43c0
ENDCHAR
STARTCHAR threequarters
ENCODING 190
SWIDTH 800 0
DWIDTH 10 0
BBX 10 9 0 0
ATTRIBUTES 0343
BITMAP
6080
2100
2200
b400
4400
0880
1140
13c0
2040
ENDCHAR
STARTCHAR questiondown
ENCODING 191
SWIDTH 640 0
DWIDTH 8 0
BBX 6 9 1 -3
ATTRIBUTES 0263
BITMAP
30
00
30
20
40
80
84
58
20
ENDCHAR
STARTCHAR Agrave
ENCODING 192
SWIDTH 640 0
DWIDTH 8 0
BBX 8 11 0 0
ATTRIBUTES 029b
BITMAP
10
00
18
18
28
24
24
7e
42
42
81
ENDCHAR
STARTCHAR Aacute
ENCODING 193
SWIDTH 640 0
DWIDTH 8 0
BBX 8 11 0 0
ATTRIBUTES 029b
BITMAP
08
00
18
18
28
24
24
7e
42
42
81
ENDCHAR
STARTCHAR Acircumflex
ENCODING 194
SWIDTH 640 0
DWIDTH 8 0
BBX 8 11 0 0
ATTRIBUTES 029b
BITMAP
18
00
18
18
28
24
24
7e
42
42
81
ENDCHAR
STARTCHAR Atilde
ENCODING 195
SWIDTH 640 0
DWIDTH 8 0
BBX 8 11 0 0
ATTRIBUTES 029b
BITMAP
3c
24
18
18
28
24
24
7e
42
42
81
ENDCHAR
STARTCHAR Adiaeresis
ENCODING 196
SWIDTH 640 0
DWIDTH 8 0
BBX 8 11 0 0
ATTRIBUTES 029b
BITMAP
14
00
18
14
34
34
24
7e
42
42
81
ENDCHAR
STARTCHAR Aring
ENCODING 197
SWIDTH 640 0
DWIDTH 8 0
BBX 8 11 0 0
ATTRIBUTES 029b
BITMAP
18
38
18
18
28
24
24
7e
42
42
81
ENDCHAR
STARTCHAR AE
ENCODING 198
SWIDTH 960 0
DWIDTH 12 0
BBX 12 9 0 0
ATTRIBUTES 03e8
BITMAP
0ff0
0a00
1200
1200
33f0
3e00
6200
4200
c3f0
ENDCHAR
STARTCHAR Ccedilla
ENCODING 199
SWIDTH 720 0
DWIDTH 9 0
BBX 8 12 0 -3
ATTRIBUTES 02d4
BITMAP
3c
42
c3
80
80
80
c3
42
3c
10
08
10
ENDCHAR
STARTCHAR Egrave
ENCODING 200
SWIDTH 640 0
DWIDTH 8 0
BBX 6 11 1 0
ATTRIBUTES 029b
BITMAP
20
00
fc
80
80
80
fc
80
80
80
fc
ENDCHAR
STARTCHAR Eacute
ENCODING 201
SWIDTH 640 0
DWIDTH 8 0
BBX 6 11 1 0
ATTRIBUTES 029b
BITMAP
10
00
fc
80
80
80
fc
80
80
80
fc
ENDCHAR
STARTCHAR Ecircumflex
ENCODING 202
SWIDTH 640 0
DWIDTH 8 0
BBX 6 11 1 0
ATTRIBUTES 029b
BITMAP
30
00
fc
80
80
80
fc
80
80
80
fc
ENDCHAR
STARTCHAR Ediaeresis
ENCODING 203
SWIDTH 640 0
DWIDTH 8 0
BBX 6 11 1 0
ATTRIBUTES 029b
BITMAP
28
00
fc
80
80
80
fc
80
80
80
fc
ENDCHAR
STARTCHAR Igrave
ENCODING 204
SWIDTH 240 0
DWIDTH 3 0
BBX 2 11 0 0
ATTRIBUTES 0117
BITMAP
40
00
40
40
40
40
40
40
40
40
40
ENDCHAR
STARTCHAR Iacute
ENCODING 205
SWIDTH 240 0
DWIDTH 3 0
BBX 2 11 0 0
ATTRIBUTES 0117
BITMAP
80
00
80
80
80
80
80
80
80
80
80
ENDCHAR
STARTCHAR Icircumflex
ENCODING 206
SWIDTH 240 0
DWIDTH 3 0
BBX 4 11 0 0
ATTRIBUTES 0117
BITMAP
60
90
60
60
60
60
60
60
60
60
60
ENDCHAR
STARTCHAR Idiaeresis
ENCODING 207
SWIDTH 240 0
DWIDTH 3 0
BBX 3 11 0 0
ATTRIBUTES 0117
BITMAP
a0
00
40
40
40
40
40
40
40
40
40
ENDCHAR
STARTCHAR ETH
ENCODING 208
SWIDTH 720 0
DWIDTH 9 0
BBX 8 9 0 0
ATTRIBUTES 02d4
BITMAP
7c
42
41
41
f9
41
41
42
7c
ENDCHAR
STARTCHAR Ntilde
ENCODING 209
SWIDTH 720 0
DWIDTH 9 0
BBX 7 11 1 0
ATTRIBUTES 02d4
BITMAP
34
28
82
c2
e2
a2
92
9a
8a
86
86
ENDCHAR
STARTCHAR Ograve
ENCODING 210
SWIDTH 800 0
DWIDTH 10 0
BBX 9 11 0 0
ATTRIBUTES 030b
BITMAP
0800
0000
3e00
6300
c180
8180
8080
8080
c180
6300
1e00
ENDCHAR
STARTCHAR Oacute
ENCODING 211
SWIDTH 800 0
DWIDTH 10 0
BBX 9 11 0 0
ATTRIBUTES 030b
BITMAP
0800
0000
3e00
6300
c180
8180
8080
8080
c180
6300
1e00
ENDCHAR
STARTCHAR Ocircumflex
ENCODING 212
SWIDTH 800 0
DWIDTH 10 0
BBX 9 11 0 0
ATTRIBUTES 030b
BITMAP
1c00
0000
3e00
6300
c180
8180
8080
8080
c180
6300
1e00
ENDCHAR
STARTCHAR Otilde
ENCODING 213
SWIDTH 800 0
DWIDTH 10 0
BBX 9 11 0 0
ATTRIBUTES 030b
BITMAP
1c00
0000
3e00
6300
c180
8180
8080
8080
c180
6300
1e00
ENDCHAR
STARTCHAR Odiaeresis
ENCODING 214
SWIDTH 800 0
DWIDTH 10 0
BBX 8 11 1 0
ATTRIBUTES 030b
BITMAP
28
00
3c
62
81
81
81
81
81
42
3c
ENDCHAR
STARTCHAR multiply
ENCODING 215
SWIDTH 560 0
DWIDTH 7 0
BBX 5 5 1 2
ATTRIBUTES 0247
BITMAP
88
50
20
50
88
ENDCHAR
STARTCHAR Ooblique
ENCODING 216
SWIDTH 800 0
DWIDTH 10 0
BBX 9 9 0 0
ATTRIBUTES 030b
BITMAP
3e80
6300
4300
8580
8880
9180
e100
6300
be00
ENDCHAR
STARTCHAR Ugrave
ENCODING 217
SWIDTH 720 0
DWIDTH 9 0
BBX 7 11 1 0
ATTRIBUTES 02d4
BITMAP
30
10
82
82
82
82
82
82
82
c4
7c
ENDCHAR
STARTCHAR Uacute
ENCODING 218
SWIDTH 720 0
DWIDTH 9 0
BBX 7 11 1 0
ATTRIBUTES 02d4
BITMAP
10
10
82
82
82
82
82
82
82
c4
7c
ENDCHAR
STARTCHAR Ucircumflex
ENCODING 219
SWIDTH 720 0
DWIDTH 9 0
BBX 7 11 1 0
ATTRIBUTES 02d4
BITMAP
38
28
82
82
82
82
82
82
82
c4
7c
ENDCHAR
STARTCHAR Udiaeresis
ENCODING 220
SWIDTH 720 0
DWIDTH 9 0
BBX 7 11 1 0
ATTRIBUTES 02d4
BITMAP
28
28
82
82
82
82
82
82
86
c4
7c
ENDCHAR
STARTCHAR Yacute
ENCODING 221
SWIDTH 640 0
DWIDTH 8 0
BBX 8 11 0 0
ATTRIBUTES 029b
BITMAP
08
10
c3
42
24
3c
18
18
18
18
18
ENDCHAR
STARTCHAR THORN
ENCODING 222
SWIDTH 640 0
DWIDTH 8 0
BBX 7 9 0 0
ATTRIBUTES 029b
BITMAP
80
80
fc
86
82
86
fc
80
80
ENDCHAR
STARTCHAR ssharp
ENCODING 223
SWIDTH 640 0
DWIDTH 8 0
BBX 6 9 1 0
ATTRIBUTES 0263
BITMAP
70
98
90
90
90
98
84
a4
b8
ENDCHAR
STARTCHAR agrave
ENCODING 224
SWIDTH 560 0
DWIDTH 7 0
BBX 6 9 0 0
ATTRIBUTES 022c
BITMAP
20
00
78
cc
44
7c
cc
8c
74
ENDCHAR
STARTCHAR aacute
ENCODING 225
SWIDTH 560 0
DWIDTH 7 0
BBX 6 9 0 0
ATTRIBUTES 022c
BITMAP
10
00
78
cc
44
7c
cc
8c
74
ENDCHAR
STARTCHAR acircumflex
ENCODING 226
SWIDTH 560 0
DWIDTH 7 0
BBX 6 9 0 0
ATTRIBUTES 022c
BITMAP
30
00
78
cc
44
7c
cc
8c
74
ENDCHAR
STARTCHAR atilde
ENCODING 227
SWIDTH 560 0
DWIDTH 7 0
BBX 6 9 0 0
ATTRIBUTES 022c
BITMAP
78
00
78
cc
44
7c
cc
8c
74
ENDCHAR
STARTCHAR adiaeresis
ENCODING 228
SWIDTH 560 0
DWIDTH 7 0
BBX 6 9 0 0
ATTRIBUTES 022c
BITMAP
28
00
38
44
44
7c
44
44
7c
ENDCHAR
STARTCHAR aring
ENCODING 229
SWIDTH 560 0
DWIDTH 7 0
BBX 6 9 0 0
ATTRIBUTES 022c
BITMAP
30
00
78
cc
44
7c
cc
8c
74
ENDCHAR
STARTCHAR ae
ENCODING 230
SWIDTH 880 0
DWIDTH 11 0
BBX 10 7 0 0
ATTRIBUTES 0378
BITMAP
7b00
cc80
0c40
7fc0
8800
8cc0
7380
ENDCHAR
STARTCHAR ccedilla
ENCODING 231
SWIDTH 480 0
DWIDTH 6 0
BBX 6 9 0 -2
ATTRIBUTES 01f4
BITMAP
10
68
c8
80
80
4c
38
20
10
ENDCHAR
STARTCHAR egrave
ENCODING 232
SWIDTH 560 0
DWIDTH 7 0
BBX 6 9 0 0
ATTRIBUTES 022c
BITMAP
20
00
78
48
84
fc
80
4c
38
ENDCHAR
STARTCHAR eacute
ENCODING 233
SWIDTH 560 0
DWIDTH 7 0
BBX 6 9 0 0
ATTRIBUTES 022c
BITMAP
10
00
78
48
84
fc
80
4c
38
ENDCHAR
STARTCHAR ecircumflex
ENCODING 234
SWIDTH 560 0
DWIDTH 7 0
BBX 6 9 0 0
ATTRIBUTES 022c
BITMAP
30
00
78
48
84
fc
80
4c
38
ENDCHAR
STARTCHAR ediaeresis
ENCODING 235
SWIDTH 560 0
DWIDTH 7 0
BBX 6 9 0 0
ATTRIBUTES 022c
BITMAP
28
00
38
44
44
fc
40
44
38
ENDCHAR
STARTCHAR igrave
ENCODING 236
SWIDTH 240 0
DWIDTH 3 0
BBX 2 9 0 0
ATTRIBUTES 0117
BITMAP
80
40
00
40
40
40
40
40
40
ENDCHAR
STARTCHAR iacute
ENCODING 237
SWIDTH 240 0
DWIDTH 3 0
BBX 2 9 0 0
ATTRIBUTES 0117
BITMAP
40
80
00
80
80
80
80
80
80
ENDCHAR
STARTCHAR icircumflex
ENCODING 238
SWIDTH 240 0
DWIDTH 3 0
BBX 4 9 0 0
ATTRIBUTES 0117
BITMAP
60
90
00
60
60
60
60
60
60
ENDCHAR
STARTCHAR idiaeresis
ENCODING 239
SWIDTH 240 0
DWIDTH 3 0
BBX 3 9 0 0
ATTRIBUTES 0117
BITMAP
a0
00
00
40
40
40
40
40
40
ENDCHAR
STARTCHAR eth
ENCODING 240
SWIDTH 560 0
DWIDTH 7 0
BBX 6 9 0 0
ATTRIBUTES 022c
BITMAP
28
30
08
7c
8c
84
84
c8
70
ENDCHAR
STARTCHAR ntilde
ENCODING 241
SWIDTH 560 0
DWIDTH 7 0
BBX 5 9 1 0
ATTRIBUTES 022c
BITMAP
78
00
f0
88
88
88
88
88
88
ENDCHAR
STARTCHAR ograve
ENCODING 242
SWIDTH 560 0
DWIDTH 7 0
BBX 6 9 0 0
ATTRIBUTES 022c
BITMAP
20
00
30
c8
84
84
84
4c
38
ENDCHAR
STARTCHAR oacute
ENCODING 243
SWIDTH 560 0
DWIDTH 7 0
BBX 6 9 0 0
ATTRIBUTES 022c
BITMAP
10
00
30
c8
84
84
84
4c
38
ENDCHAR
STARTCHAR ocircumflex
ENCODING 244
SWIDTH 560 0
DWIDTH 7 0
BBX 6 9 0 0
ATTRIBUTES 022c
BITMAP
30
00
30
c8
84
84
84
4c
38
ENDCHAR
STARTCHAR otilde
ENCODING 245
SWIDTH 560 0
DWIDTH 7 0
BBX 6 9 0 0
ATTRIBUTES 022c
BITMAP
78
00
30
c8
84
84
84
4c
38
ENDCHAR
STARTCHAR odiaeresis
ENCODING 246
SWIDTH 560 0
DWIDTH 7 0
BBX 7 9 0 0
ATTRIBUTES 022c
BITMAP
28
00
38
44
44
c6
44
44
38
ENDCHAR
STARTCHAR division
ENCODING 247
SWIDTH 560 0
DWIDTH 7 0
BBX 6 5 0 2
ATTRIBUTES 0223
BITMAP
30
00
fc
00
30
ENDCHAR
STARTCHAR oslash
ENCODING 248
SWIDTH 640 0
DWIDTH 8 0
BBX 6 7 1 0
ATTRIBUTES 0263
BITMAP
14
68
94
94
a4
cc
70
ENDCHAR
STARTCHAR ugrave
ENCODING 249
SWIDTH 560 0
DWIDTH 7 0
BBX 5 9 1 0
ATTRIBUTES 022c
BITMAP
20
20
00
88
88
88
88
88
78
ENDCHAR
STARTCHAR uacute
ENCODING 250
SWIDTH 560 0
DWIDTH 7 0
BBX 5 9 1 0
ATTRIBUTES 022c
BITMAP
30
20
00
88
88
88
88
88
78
ENDCHAR
STARTCHAR ucircumflex
ENCODING 251
SWIDTH 560 0
DWIDTH 7 0
BBX 5 9 1 0
ATTRIBUTES 022c
BITMAP
20
50
00
88
88
88
88
88
78
ENDCHAR
STARTCHAR udiaeresis
ENCODING 252
SWIDTH 560 0
DWIDTH 7 0
BBX 5 9 1 0
ATTRIBUTES 022c
BITMAP
50
50
00
88
88
88
88
88
78
ENDCHAR
STARTCHAR yacute
ENCODING 253
SWIDTH 480 0
DWIDTH 6 0
BBX 6 12 0 -3
ATTRIBUTES 01f4
BITMAP
10
10
00
c4
48
48
38
30
30
20
a0
c0
ENDCHAR
STARTCHAR thorn
ENCODING 254
SWIDTH 560 0
DWIDTH 7 0
BBX 6 11 0 -2
ATTRIBUTES 022c
BITMAP
80
80
90
f8
8c
84
84
cc
f8
80
80
ENDCHAR
STARTCHAR ydiaeresis
ENCODING 255
SWIDTH 480 0
DWIDTH 6 0
BBX 6 12 0 -3
ATTRIBUTES 01f4
BITMAP
28
00
00
44
48
68
28
28
10
10
60
40
ENDCHAR
ENDFONT
